<svg xmlns="http://www.w3.org/2000/svg" xmlns:xlink="http://www.w3.org/1999/xlink" contentStyleType="text/css" data-diagram-type="SEQUENCE" height="641px" preserveAspectRatio="none" style="width:1342px;height:641px;background:#FFFFFF;" version="1.1" viewBox="0 0 1342 641" width="1342px" zoomAndPan="magnify"><defs/><g><rect fill="#FFFFFF" fill-opacity="0.00000" height="314.4609" style="stroke:#000000;stroke-width:1.5;" width="1176.6147" x="10" y="69.5938"/><rect fill="#FFFFFF" fill-opacity="0.00000" height="145.6641" style="stroke:#000000;stroke-width:1.5;" width="837.0405" x="323.1016" y="398.0547"/><g><title>Customer</title><rect fill="#FFFFFF" fill-opacity="0.00000" height="537.2578" width="8" x="57.002" y="52.5938"/><line style="stroke:#181818;stroke-width:0.5;stroke-dasharray:5.0,5.0;" x1="61" x2="61" y1="52.5938" y2="589.8516"/></g><g><title>Merchant</title><rect fill="#FFFFFF" fill-opacity="0.00000" height="537.2578" width="8" x="214.7534" y="52.5938"/><line style="stroke:#181818;stroke-width:0.5;stroke-dasharray:5.0,5.0;" x1="218.5068" x2="218.5068" y1="52.5938" y2="589.8516"/></g><g><title>Payment Processor</title><rect fill="#FFFFFF" fill-opacity="0.00000" height="537.2578" width="8" x="403.2783" y="52.5938"/><line style="stroke:#181818;stroke-width:0.5;stroke-dasharray:5.0,5.0;" x1="407.1016" x2="407.1016" y1="52.5938" y2="589.8516"/></g><g><title>Card Network</title><rect fill="#FFFFFF" fill-opacity="0.00000" height="537.2578" width="8" x="725.5737" y="52.5938"/><line style="stroke:#181818;stroke-width:0.5;stroke-dasharray:5.0,5.0;" x1="728.623" x2="728.623" y1="52.5938" y2="589.8516"/></g><g><title>Customer's Bank</title><rect fill="#FFFFFF" fill-opacity="0.00000" height="537.2578" width="8" x="1030.7939" y="52.5938"/><line style="stroke:#181818;stroke-width:0.5;stroke-dasharray:5.0,5.0;" x1="1034.4136" x2="1034.4136" y1="52.5938" y2="589.8516"/></g><g><title>Merchant's Bank</title><rect fill="#FFFFFF" fill-opacity="0.00000" height="537.2578" width="8" x="1266.9517" y="52.5938"/><line style="stroke:#181818;stroke-width:0.5;stroke-dasharray:5.0,5.0;" x1="1270.5933" x2="1270.5933" y1="52.5938" y2="589.8516"/></g><g><rect fill="#E2E2F0" height="30.2969" rx="2.5" ry="2.5" style="stroke:#181818;stroke-width:0.5;" width="82.0039" x="20" y="21.2969"/><text fill="#000000" font-family="sans-serif" font-size="14" lengthAdjust="spacing" textLength="68.0039" x="27" y="41.292">Customer</text></g><g><rect fill="#E2E2F0" height="30.2969" rx="2.5" ry="2.5" style="stroke:#181818;stroke-width:0.5;" width="82.0039" x="20" y="588.8516"/><text fill="#000000" font-family="sans-serif" font-size="14" lengthAdjust="spacing" textLength="68.0039" x="27" y="608.8467">Customer</text></g><g><rect fill="#E2E2F0" height="46.5938" rx="2.5" ry="2.5" style="stroke:#181818;stroke-width:0.5;" width="94.4932" x="171.5068" y="5"/><text fill="#000000" font-family="sans-serif" font-size="14" lengthAdjust="spacing" textLength="65.96" x="185.7734" y="24.9951">Merchant</text><text fill="#000000" font-family="sans-serif" font-size="14" lengthAdjust="spacing" textLength="80.4932" x="178.5068" y="41.292">(Starbucks)</text></g><g><rect fill="#E2E2F0" height="46.5938" rx="2.5" ry="2.5" style="stroke:#181818;stroke-width:0.5;" width="94.4932" x="171.5068" y="588.8516"/><text fill="#000000" font-family="sans-serif" font-size="14" lengthAdjust="spacing" textLength="65.96" x="185.7734" y="608.8467">Merchant</text><text fill="#000000" font-family="sans-serif" font-size="14" lengthAdjust="spacing" textLength="80.4932" x="178.5068" y="625.1436">(Starbucks)</text></g><g><rect fill="#E2E2F0" height="46.5938" rx="2.5" ry="2.5" style="stroke:#181818;stroke-width:0.5;" width="148.3535" x="333.1016" y="5"/><text fill="#000000" font-family="sans-serif" font-size="14" lengthAdjust="spacing" textLength="134.3535" x="340.1016" y="24.9951">Payment Processor</text><text fill="#000000" font-family="sans-serif" font-size="14" lengthAdjust="spacing" textLength="60.5186" x="377.019" y="41.292">(Square)</text></g><g><rect fill="#E2E2F0" height="46.5938" rx="2.5" ry="2.5" style="stroke:#181818;stroke-width:0.5;" width="148.3535" x="333.1016" y="588.8516"/><text fill="#000000" font-family="sans-serif" font-size="14" lengthAdjust="spacing" textLength="134.3535" x="340.1016" y="608.8467">Payment Processor</text><text fill="#000000" font-family="sans-serif" font-size="14" lengthAdjust="spacing" textLength="60.5186" x="377.019" y="625.1436">(Square)</text></g><g><rect fill="#E2E2F0" height="46.5938" rx="2.5" ry="2.5" style="stroke:#181818;stroke-width:0.5;" width="109.9014" x="674.623" y="5"/><text fill="#000000" font-family="sans-serif" font-size="14" lengthAdjust="spacing" textLength="95.9014" x="681.623" y="24.9951">Card Network</text><text fill="#000000" font-family="sans-serif" font-size="14" lengthAdjust="spacing" textLength="40.2637" x="709.4419" y="41.292">(Visa)</text></g><g><rect fill="#E2E2F0" height="46.5938" rx="2.5" ry="2.5" style="stroke:#181818;stroke-width:0.5;" width="109.9014" x="674.623" y="588.8516"/><text fill="#000000" font-family="sans-serif" font-size="14" lengthAdjust="spacing" textLength="95.9014" x="681.623" y="608.8467">Card Network</text><text fill="#000000" font-family="sans-serif" font-size="14" lengthAdjust="spacing" textLength="40.2637" x="709.4419" y="625.1436">(Visa)</text></g><g><rect fill="#E2E2F0" height="30.2969" rx="2.5" ry="2.5" style="stroke:#181818;stroke-width:0.5;" width="132.7607" x="968.4136" y="21.2969"/><text fill="#000000" font-family="sans-serif" font-size="14" lengthAdjust="spacing" textLength="118.7607" x="975.4136" y="41.292">Customer's Bank</text></g><g><rect fill="#E2E2F0" height="30.2969" rx="2.5" ry="2.5" style="stroke:#181818;stroke-width:0.5;" width="132.7607" x="968.4136" y="588.8516"/><text fill="#000000" font-family="sans-serif" font-size="14" lengthAdjust="spacing" textLength="118.7607" x="975.4136" y="608.8467">Customer's Bank</text></g><g><rect fill="#E2E2F0" height="30.2969" rx="2.5" ry="2.5" style="stroke:#181818;stroke-width:0.5;" width="130.7168" x="1205.5933" y="21.2969"/><text fill="#000000" font-family="sans-serif" font-size="14" lengthAdjust="spacing" textLength="116.7168" x="1212.5933" y="41.292">Merchant's Bank</text></g><g><rect fill="#E2E2F0" height="30.2969" rx="2.5" ry="2.5" style="stroke:#181818;stroke-width:0.5;" width="130.7168" x="1205.5933" y="588.8516"/><text fill="#000000" font-family="sans-serif" font-size="14" lengthAdjust="spacing" textLength="116.7168" x="1212.5933" y="608.8467">Merchant's Bank</text></g><path d="M10,69.5938 L86.4082,69.5938 L86.4082,76.7266 L76.4082,86.7266 L10,86.7266 L10,69.5938 " fill="#EEEEEE" style="stroke:#000000;stroke-width:1.5;"/><rect fill="#FFFFFF" fill-opacity="0.00000" height="314.4609" style="stroke:#000000;stroke-width:1.5;" width="1176.6147" x="10" y="69.5938"/><text fill="#000000" font-family="sans-serif" font-size="13" font-weight="bold" lengthAdjust="spacing" textLength="31.4082" x="25" y="82.6606">Sale</text><g><polygon fill="#181818" points="206.7534,103.8594,216.7534,107.8594,206.7534,111.8594,210.7534,107.8594" style="stroke:#181818;stroke-width:1;"/><line style="stroke:#181818;stroke-width:1;" x1="61.002" x2="212.7534" y1="107.8594" y2="107.8594"/><text fill="#000000" font-family="sans-serif" font-size="13" lengthAdjust="spacing" textLength="80.3613" x="68.002" y="102.7935">Places order</text></g><g><polygon fill="#181818" points="206.7534,132.9922,216.7534,136.9922,206.7534,140.9922,210.7534,136.9922" style="stroke:#181818;stroke-width:1;"/><line style="stroke:#181818;stroke-width:1;" x1="61.002" x2="212.7534" y1="136.9922" y2="136.9922"/><text fill="#000000" font-family="sans-serif" font-size="13" lengthAdjust="spacing" textLength="133.7515" x="68.002" y="131.9263">Provides Credit Card</text></g><g><polygon fill="#181818" points="395.2783,162.125,405.2783,166.125,395.2783,170.125,399.2783,166.125" style="stroke:#181818;stroke-width:1;"/><line style="stroke:#181818;stroke-width:1;" x1="218.7534" x2="401.2783" y1="166.125" y2="166.125"/><text fill="#000000" font-family="sans-serif" font-size="13" lengthAdjust="spacing" textLength="164.5249" x="225.7534" y="161.0591">Sends transaction details</text></g><g><polygon fill="#181818" points="717.5737,191.2578,727.5737,195.2578,717.5737,199.2578,721.5737,195.2578" style="stroke:#181818;stroke-width:1;"/><line style="stroke:#181818;stroke-width:1;" x1="407.2783" x2="723.5737" y1="195.2578" y2="195.2578"/><text fill="#000000" font-family="sans-serif" font-size="13" lengthAdjust="spacing" textLength="191.147" x="414.2783" y="190.1919">Forwards transaction request</text></g><g><polygon fill="#181818" points="1022.7939,220.3906,1032.7939,224.3906,1022.7939,228.3906,1026.7939,224.3906" style="stroke:#181818;stroke-width:1;"/><line style="stroke:#181818;stroke-width:1;" x1="729.5737" x2="1028.7939" y1="224.3906" y2="224.3906"/><text fill="#000000" font-family="sans-serif" font-size="13" lengthAdjust="spacing" textLength="150.4395" x="736.5737" y="219.3247">Requests authorization</text></g><g><polygon fill="#181818" points="740.5737,249.5234,730.5737,253.5234,740.5737,257.5234,736.5737,253.5234" style="stroke:#181818;stroke-width:1;"/><line style="stroke:#181818;stroke-width:1;" x1="734.5737" x2="1033.7939" y1="253.5234" y2="253.5234"/><text fill="#000000" font-family="sans-serif" font-size="13" lengthAdjust="spacing" textLength="138.728" x="746.5737" y="248.4575">Approves transaction</text></g><path d="M891,266.5234 L891,291.5234 L1176,291.5234 L1176,276.5234 L1166,266.5234 L891,266.5234 " fill="#FEFFDD" style="stroke:#181818;stroke-width:0.5;"/><path d="M1166,266.5234 L1166,276.5234 L1176,276.5234 L1166,266.5234 " fill="#FEFFDD" style="stroke:#181818;stroke-width:0.5;"/><text fill="#000000" font-family="sans-serif" font-size="13" lengthAdjust="spacing" textLength="264.6147" x="897" y="283.5903">withdraw and put transaction in pending</text><g><polygon fill="#181818" points="418.2783,313.7891,408.2783,317.7891,418.2783,321.7891,414.2783,317.7891" style="stroke:#181818;stroke-width:1;"/><line style="stroke:#181818;stroke-width:1;" x1="412.2783" x2="728.5737" y1="317.7891" y2="317.7891"/><text fill="#000000" font-family="sans-serif" font-size="13" lengthAdjust="spacing" textLength="100.6865" x="424.2783" y="312.7231">Sends approval</text></g><g><polygon fill="#181818" points="229.7534,342.9219,219.7534,346.9219,229.7534,350.9219,225.7534,346.9219" style="stroke:#181818;stroke-width:1;"/><line style="stroke:#181818;stroke-width:1;" x1="223.7534" x2="406.2783" y1="346.9219" y2="346.9219"/><text fill="#000000" font-family="sans-serif" font-size="13" lengthAdjust="spacing" textLength="120.2817" x="235.7534" y="341.856">Confirms payment</text></g><g><polygon fill="#181818" points="72.002,372.0547,62.002,376.0547,72.002,380.0547,68.002,376.0547" style="stroke:#181818;stroke-width:1;"/><line style="stroke:#181818;stroke-width:1;" x1="66.002" x2="217.7534" y1="376.0547" y2="376.0547"/><text fill="#000000" font-family="sans-serif" font-size="13" lengthAdjust="spacing" textLength="105.0474" x="78.002" y="370.9888">Provides receipt</text></g><path d="M323.1016,398.0547 L449.8149,398.0547 L449.8149,405.1875 L439.8149,415.1875 L323.1016,415.1875 L323.1016,398.0547 " fill="#EEEEEE" style="stroke:#000000;stroke-width:1.5;"/><rect fill="#FFFFFF" fill-opacity="0.00000" height="145.6641" style="stroke:#000000;stroke-width:1.5;" width="837.0405" x="323.1016" y="398.0547"/><text fill="#000000" font-family="sans-serif" font-size="13" font-weight="bold" lengthAdjust="spacing" textLength="81.7134" x="338.1016" y="411.1216">Settlement</text><path d="M350,420.1875 L350,445.1875 L463,445.1875 L463,430.1875 L453,420.1875 L350,420.1875 " fill="#FEFFDD" style="stroke:#181818;stroke-width:0.5;"/><path d="M453,420.1875 L453,430.1875 L463,430.1875 L453,420.1875 " fill="#FEFFDD" style="stroke:#181818;stroke-width:0.5;"/><text fill="#000000" font-family="sans-serif" font-size="13" lengthAdjust="spacing" textLength="92.0918" x="356" y="437.2544">After 2-3 days</text><g><polygon fill="#181818" points="717.5737,467.4531,727.5737,471.4531,717.5737,475.4531,721.5737,471.4531" style="stroke:#181818;stroke-width:1;"/><line style="stroke:#181818;stroke-width:1;" x1="407.2783" x2="723.5737" y1="471.4531" y2="471.4531"/><text fill="#000000" font-family="sans-serif" font-size="13" lengthAdjust="spacing" textLength="298.2954" x="414.2783" y="466.3872">Settle Merchants transactions in last 2-3 days</text></g><g><polygon fill="#181818" points="1022.7939,496.5859,1032.7939,500.5859,1022.7939,504.5859,1026.7939,500.5859" style="stroke:#181818;stroke-width:1;"/><line style="stroke:#181818;stroke-width:1;" x1="729.5737" x2="1028.7939" y1="500.5859" y2="500.5859"/><text fill="#000000" font-family="sans-serif" font-size="13" lengthAdjust="spacing" textLength="281.2202" x="736.5737" y="495.52">Sends request to transfer to MerchantBank</text></g><path d="M918,513.5859 L918,538.5859 L1150,538.5859 L1150,523.5859 L1140,513.5859 L918,513.5859 " fill="#FEFFDD" style="stroke:#181818;stroke-width:0.5;"/><path d="M1140,513.5859 L1140,523.5859 L1150,523.5859 L1140,513.5859 " fill="#FEFFDD" style="stroke:#181818;stroke-width:0.5;"/><text fill="#000000" font-family="sans-serif" font-size="13" lengthAdjust="spacing" textLength="211.1421" x="924" y="530.6528">marks the transaction as settled</text><g><polygon fill="#181818" points="1258.9517,567.8516,1268.9517,571.8516,1258.9517,575.8516,1262.9517,571.8516" style="stroke:#181818;stroke-width:1;"/><line style="stroke:#181818;stroke-width:1;" x1="1034.7939" x2="1264.9517" y1="571.8516" y2="571.8516"/><text fill="#000000" font-family="sans-serif" font-size="13" lengthAdjust="spacing" textLength="212.1577" x="1041.7939" y="566.7856">Deposit sum(transactions) - fees</text></g><!--SRC=[TL8zRzj03DtlLn1U4WzUsar3W5P5jnf637JAmkhe-63fxa9IDP9V7qgolffqauZt7jzxnuoieGePeqBPYgQ6sEN5y1TnTUu-K60p_Zp5-wCY_schYsmti28SE5KaahXd7F2reUMqexwqoBJTh6ZbliUNo1xsfDV45uF-3eB_0BzZl0pGczqxwMURJsrFw74meTqpfpR34MjoenJi7YPc0OSQpJCazjR9Vo2S_WPle9B91qjXzjrKcK6dt0KSANe1POo2bOOKmPDYgCNDbHcZt1VmC_7LbDPeffUMH9qrPR0kH06Fmqm0Mpqd3c_OGLsV-gRrBMSpIIij5vCIs9I7EWku1ZrxnYjWz91RNMqE4RAP3_7vjln3AkoNOBsEClTKfdWAt0ZauHvM7OtLBkfagYXaTIO-FHIfrjIJP_VpEWjwKfjysNq5Zw-Vb3e8JAPMXKYNiKRHcJ_N36FAsmk0fe5xidtslRorZyqso1VRTQPLfNQIqllnGyRnnPPQ1VoWdCJEIjhcVkbs2piu4Sax]--></g></svg>